<?xml version="1.0" encoding="UTF-8" standalone="no"?>
<svg
    xmlns:svg="http://www.w3.org/2000/svg"
    xmlns="http://www.w3.org/2000/svg"
    version="1.1"
    x="0px"
    y="0px"
    viewBox="0 0 296.773 296.773">

    <path
        style="fill: #FAFAFA;fill-opacity:1"
        d="M -6.6699219 -4.6640625 L -6.6699219 300.33008 L 301.4375 300.33008 L 301.4375 -4.6640625 L -6.6699219 -4.6640625 z M 100.86133 0 L 110.39648 11.253906 C 112.57448 13.823906 143.45358 50.573906 168.64258 96.003906 C 163.30158 105.31991 158.63072 114.29316 154.63672 122.91016 C 142.92372 148.18016 137.01172 170.40578 137.01172 189.30078 C 137.01172 210.81878 144.84945 230.53672 157.81445 245.76172 C 163.23545 252.12872 169.55231 257.70673 176.57031 262.30273 C 158.12931 283.41473 131.02833 296.77344 100.86133 296.77344 C 45.436328 296.77344 0.34570312 251.68186 0.34570312 196.25586 C 0.34570313 119.50386 87.609219 15.638906 91.324219 11.253906 L 100.86133 0 z M 224.2207 41.001953 C 242.2167 63.776953 296.42773 136.76178 296.42773 189.30078 C 296.42773 229.11678 264.03475 261.50781 224.21875 261.50781 C 184.40375 261.50781 152.01172 229.11678 152.01172 189.30078 C 152.01172 136.80878 206.2247 63.790953 224.2207 41.001953 z" />
</svg>