<?xml version="1.0" encoding="UTF-8" standalone="no"?>
<!-- Generator: Adobe Illustrator 17.1.0, SVG Export Plug-In . SVG Version: 6.00 Build 0)  -->

<svg
   xmlns:dc="http://purl.org/dc/elements/1.1/"
   xmlns:cc="http://creativecommons.org/ns#"
   xmlns:rdf="http://www.w3.org/1999/02/22-rdf-syntax-ns#"
   xmlns:svg="http://www.w3.org/2000/svg"
   xmlns="http://www.w3.org/2000/svg"
   xmlns:sodipodi="http://sodipodi.sourceforge.net/DTD/sodipodi-0.dtd"
   xmlns:inkscape="http://www.inkscape.org/namespaces/inkscape"
   version="1.1"
   id="Capa_1"
   x="0px"
   y="0px"
   viewBox="0 0 299 299"
   style="enable-background:new 0 0 299 299;"
   xml:space="preserve"
   inkscape:version="0.91 r13725"
   sodipodi:docname="snowflake_new.svg"><metadata
     id="metadata3373"><rdf:RDF><cc:Work
         rdf:about=""><dc:format>image/svg+xml</dc:format><dc:type
           rdf:resource="http://purl.org/dc/dcmitype/StillImage" /><dc:title></dc:title></cc:Work></rdf:RDF></metadata><defs
     id="defs3371" /><sodipodi:namedview
     pagecolor="#ffffff"
     bordercolor="#666666"
     borderopacity="1"
     objecttolerance="10"
     gridtolerance="10"
     guidetolerance="10"
     inkscape:pageopacity="0"
     inkscape:pageshadow="2"
     inkscape:window-width="1920"
     inkscape:window-height="1017"
     id="namedview3369"
     showgrid="false"
     inkscape:zoom="2.00544"
     inkscape:cx="57.678558"
     inkscape:cy="158.09738"
     inkscape:window-x="-8"
     inkscape:window-y="-8"
     inkscape:window-maximized="1"
     inkscape:current-layer="Capa_1" /><path
     style="fill:#fafafa;fill-opacity:1;fill-rule:evenodd;stroke:none;stroke-width:1px;stroke-linecap:butt;stroke-linejoin:miter;stroke-opacity:1"
     d="M 0,-2.6801159 0,299 l 302.17876,0 0,-301.6801159 -302.17876,0 z m 193.25072,6.1323413 c 0.74402,-8.516e-4 1.50081,0.1088078 2.24904,0.3401395 3.99047,1.2337682 6.22423,5.4613537 4.98842,9.4452591 l -6.42215,20.701322 11.71975,-6.06746 c 3.69518,-1.945241 8.39042,-0.492557 10.33726,3.194954 1.94873,3.688104 0.45129,8.230409 -3.24356,10.17469 l -25.14104,13.096354 -3.5173,11.334706 11.75127,-6.057629 c 3.69515,-1.945243 8.41994,-0.484692 10.36677,3.202816 1.94876,3.688104 0.51237,8.250075 -3.18252,10.194354 l -24.80426,13.017708 1.02999,26.796321 28.44958,-4.1741 7.87159,-25.372829 c 1.23579,-3.983904 5.47038,-6.211994 9.46088,-4.978226 3.99048,1.233767 6.22225,5.461354 4.98645,9.44526 l -3.60987,11.635529 10.09303,-5.310507 8.08232,-26.05901 c 1.2358,-3.983907 5.47038,-6.21396 9.46087,-4.980192 3.9905,1.233768 6.22422,5.461355 4.98843,9.445258 l -3.60986,11.637491 18.39984,-9.549464 c 3.69554,-1.943023 8.42985,-0.479392 10.37862,3.208714 1.94747,3.688768 0.53038,8.255009 -3.1648,10.200252 l -18.6086,9.791298 12.218,3.778896 c 3.99047,1.23377 6.22225,5.46137 4.98646,9.44527 -1.23581,3.9839 -5.47039,6.21198 -9.46088,4.97821 l -26.66533,-8.24592 -10.09304,5.31052 12.218,3.77887 c 3.99051,1.23377 6.22227,5.46133 4.98646,9.44526 -1.23582,3.98389 -5.47041,6.212 -9.46087,4.97823 l -26.66534,-8.24396 -0.42539,0.22414 -18.56725,20.13508 22.80142,17.0168 23.534,-12.38265 c 3.6936,-1.9436 8.26796,-0.53017 10.21515,3.15956 1.94781,3.6878 0.53105,8.25431 -3.16478,10.19829 l -10.97335,5.77254 11.35344,3.5115 24.35327,-12.81323 c 3.69363,-1.94362 8.26796,-0.53214 10.21516,3.15759 1.94778,3.68781 0.533,8.25626 -3.16283,10.20025 l -10.97334,5.77255 19.77447,6.11267 c 3.99049,1.23377 6.22226,5.46134 4.98646,9.44525 -1.2358,3.98393 -5.47037,6.21201 -9.46088,4.97824 l -19.77053,-6.11072 5.78209,10.94936 c 1.94844,3.68907 0.53206,8.25596 -3.16282,10.20024 -1.84806,0.97248 -3.916,1.1043 -5.76435,0.53282 -1.84837,-0.57147 -3.47936,-1.84665 -4.45275,-3.69041 l -12.83443,-24.31113 -11.35345,-3.50952 5.78211,10.95131 c 1.94844,3.68905 0.53203,8.25595 -3.16283,10.20026 -1.84805,0.97244 -3.91601,1.10427 -5.76437,0.5328 -1.84836,-0.57146 -3.47934,-1.84666 -4.45274,-3.69041 l -12.83441,-24.31113 -0.32692,-0.10035 -27.38809,1.13055 3.97027,27.45887 25.87363,8.00017 c 3.9905,1.23376 6.22226,5.46135 4.98646,9.44525 -1.23581,3.98391 -5.4704,6.21199 -9.46088,4.97822 l -11.65476,-3.60389 5.31929,10.07442 26.10209,8.07094 c 3.99048,1.23377 6.22422,5.46134 4.98841,9.44525 -1.2358,3.98391 -5.47038,6.212 -9.46086,4.97822 l -11.65674,-3.60389 9.59282,18.20631 c 1.94652,3.68847 0.51266,8.24713 -3.18249,10.19238 -1.84778,0.97151 -3.95539,1.09249 -5.80376,0.52103 -1.84836,-0.57147 -3.55912,-1.87194 -4.5335,-3.71598 l -9.96897,-18.62903 -3.78316,12.19784 c -1.23581,3.98389 -5.47038,6.21198 -9.46088,4.97822 -3.99047,-1.23378 -6.22423,-5.46135 -4.98843,-9.44526 l 8.25956,-26.62132 -5.31928,-10.0764 -3.78512,12.19981 c -1.23581,3.9839 -5.4704,6.21201 -9.46088,4.97823 -3.9905,-1.23376 -6.22226,-5.46136 -4.98645,-9.44526 l 8.01337,-25.83092 -20.44604,-18.79026 -16.41472,21.92031 -0.10043,0.32244 12.64337,23.72522 c 1.9478,3.68781 0.67088,8.29757 -3.02495,10.24153 -1.84583,0.97213 -3.95339,1.09251 -5.80177,0.52104 -1.84931,-0.57177 -3.55943,-1.87096 -4.5335,-3.71597 l -5.61073,-10.37329 -3.51535,11.33471 12.64142,23.72523 c 1.94777,3.6878 0.67284,8.29756 -3.023,10.24154 -1.84584,0.97209 -3.95538,1.0925 -5.80374,0.52102 -1.84931,-0.57176 -3.55745,-1.87291 -4.53155,-3.71793 l -5.61072,-10.37132 -6.12279,19.7399 c -1.2358,3.9839 -5.47235,6.21199 -9.46284,4.97821 -3.99049,-1.23376 -6.22226,-5.46135 -4.98645,-9.44524 l 6.42213,-20.70133 -11.459794,6.1461 c -1.848064,0.97248 -3.776172,1.14951 -5.624525,0.57804 -1.848364,-0.57147 -3.518729,-1.86041 -4.492146,-3.70417 -1.947791,-3.68781 -0.612794,-8.27956 3.082072,-10.22385 l 24.821983,-13.19662 3.51534,-11.33274 -11.44207,6.15201 c -1.84805,0.97246 -3.75846,1.15343 -5.60682,0.58195 -1.848346,-0.57148 -3.483261,-1.84862 -4.456673,-3.69237 -1.947797,-3.68782 -0.541899,-8.25597 3.152966,-10.20025 l 23.811707,-12.5478 -1.18361,-27.62209 -27.210837,3.88703 -0.586867,0.175 -7.660867,24.69844 c -1.235805,3.98391 -5.47038,6.212 -9.460871,4.97823 -3.99049,-1.23377 -6.222263,-5.46137 -4.986454,-9.44526 l 3.186448,-10.27497 -10.091073,5.31051 -7.662834,24.69844 c -1.235807,3.98391 -5.470382,6.212 -9.460873,4.97823 -3.99049,-1.23379 -6.222262,-5.46134 -4.986453,-9.44526 l 3.188405,-10.27497 -18.447126,9.84241 c -1.847766,0.9715 -3.75648,1.15343 -5.604839,0.58198 -1.84836,-0.57148 -3.478374,-1.84834 -4.452752,-3.69239 -1.947496,-3.68877 -0.530381,-8.25305 3.164783,-10.19828 l 19.500739,-10.26317 -12.619747,-3.9008 c -3.99049,-1.23376 -6.222262,-5.46134 -4.986455,-9.44525 1.235809,-3.9839 5.470381,-6.21199 9.460871,-4.97823 l 27.067077,8.36783 11.35344,-5.97506 -13.582771,-4.19768 c -3.990491,-1.23376 -6.222262,-5.46135 -4.986456,-9.44526 1.235809,-3.98389 5.470382,-6.21395 9.460873,-4.98017 l 26.330532,8.1417 18.067027,-19.59241 -21.956543,-16.38569 -0.324947,-0.10223 -23.08894,12.15064 c -1.846802,0.97182 -3.914028,1.10431 -5.762388,0.53282 -1.849322,-0.57175 -3.478676,-1.84735 -4.452754,-3.69237 -1.947493,-3.68877 -0.531045,-8.25628 3.164783,-10.20026 l 9.707046,-5.10798 -11.353442,-3.50953 -23.08894,12.14868 c -1.846801,0.9718 -3.914029,1.10428 -5.762389,0.53282 -1.849321,-0.57179 -3.478675,-1.84738 -4.452752,-3.69239 -1.947495,-3.68876 -0.531047,-8.25626 3.164783,-10.20025 l 9.707044,-5.10798 -19.770545,-6.11269 C 7.5953458,111.67055 5.3616045,107.44296 6.5974118,103.45907 7.833219,99.475152 12.069762,97.24706 16.060253,98.48084 l 21.700531,6.71037 -6.449699,-12.21356 C 29.3623,89.289586 30.779004,84.723683 34.473869,82.779404 38.169032,80.834162 42.742184,82.249489 44.689011,85.937 l 13.502029,25.57141 11.355409,3.51151 -6.449698,-12.21357 c -1.948757,-3.688109 -0.532051,-8.254012 3.162814,-10.198291 3.695163,-1.945242 8.270282,-0.529914 10.217112,3.157596 L 89.196865,119.85855 116.06305,118.74769 111.9313,90.185794 87.477602,82.626048 c -3.990494,-1.233771 -6.222265,-5.461356 -4.986457,-9.445262 1.235807,-3.983905 5.470379,-6.211994 9.460867,-4.978227 L 102.24396,71.383748 96.92468,61.309328 72.185412,53.65914 c -3.990491,-1.233768 -6.222264,-5.461356 -4.986457,-9.445261 1.235807,-3.983904 5.470382,-6.211994 9.460873,-4.978226 L 86.951774,42.416842 77.104907,23.827137 C 75.157413,20.13837 76.53317,15.56033 80.228334,13.615089 c 3.69553,-1.94302 8.187615,-0.554103 10.136365,3.134001 l 10.118641,19.421375 3.9092,-12.598923 c 1.2358,-3.983905 5.47037,-6.211996 9.46088,-4.978227 3.99048,1.233769 6.22226,5.461356 4.98647,9.445262 l -8.38167,27.022409 5.98296,11.334707 4.20658,-13.56036 c 1.23581,-3.983904 5.4704,-6.211993 9.46087,-4.978225 3.99051,1.233767 6.22228,5.461354 4.98646,9.44526 l -8.45255,27.248514 19.77644,18.082448 17.19462,-22.716603 -12.08999,-22.869955 c -1.9478,-3.687809 -0.57241,-8.268066 3.12341,-10.212049 3.69393,-1.944578 8.18792,-0.553099 10.13638,3.135968 l 5.28975,10.271033 3.51532,-11.332741 -12.38144,-23.644608 c -1.94781,-3.687806 -0.41092,-8.216948 3.28491,-10.160929 3.6939,-1.944578 8.18594,-0.555064 10.13439,3.134001 l 5.28973,10.272999 6.12279,-19.7398864 c 1.00408,-3.2369235 3.98778,-5.3146758 7.21184,-5.3183657 z"
     id="rect3375"
     inkscape:connector-curvature="0" /><g
     id="g3339" /><g
     id="g3341" /><g
     id="g3343" /><g
     id="g3345" /><g
     id="g3347" /><g
     id="g3349" /><g
     id="g3351" /><g
     id="g3353" /><g
     id="g3355" /><g
     id="g3357" /><g
     id="g3359" /><g
     id="g3361" /><g
     id="g3363" /><g
     id="g3365" /><g
     id="g3367" /></svg>