<?xml version="1.0" encoding="iso-8859-1"?>
<!-- Generator: Adobe Illustrator 17.1.0, SVG Export Plug-In . SVG Version: 6.00 Build 0)  -->
<!DOCTYPE svg PUBLIC "-//W3C//DTD SVG 1.1//EN" "http://www.w3.org/Graphics/SVG/1.1/DTD/svg11.dtd">
<svg version="1.1" id="Capa_1" xmlns="http://www.w3.org/2000/svg" xmlns:xlink="http://www.w3.org/1999/xlink" x="0px" y="0px"
	 viewBox="0 0 299 299" style="enable-background:new 0 0 299 299;" xml:space="preserve">
<path d="M291.5,142.5h-20.53l8.698-8.697c2.93-2.929,2.93-7.678,0.001-10.606c-2.929-2.93-7.678-2.929-10.606-0.001L249.757,142.5
	H237.97l8.698-8.697c2.93-2.929,2.93-7.678,0.001-10.606c-2.929-2.93-7.678-2.929-10.606-0.001l-18.656,18.655l-26.601-9.46
	l11.672-24.553l0.338-0.338H230.5c4.143,0,7.5-3.357,7.5-7.5s-3.357-7.5-7.5-7.5h-12.685l8-8H253.5c4.143,0,7.5-3.357,7.5-7.5
	s-3.357-7.5-7.5-7.5h-12.685l14.752-14.752c2.929-2.93,2.929-7.678,0-10.607c-2.93-2.928-7.844-2.928-10.774,0l-14.626,14.46V46.5
	c0-4.143-3.357-7.5-7.5-7.5c-4.143,0-7.5,3.357-7.5,7.5v27.101l-8,8V69.5c0-4.143-3.357-7.5-7.5-7.5c-4.143,0-7.5,3.357-7.5,7.5
	v26.387l-25.725,12.308l-8.851-25.126l19.672-19.631c2.929-2.929,2.95-7.678,0.02-10.606c-2.928-2.928-7.833-2.929-10.762,0.001
	l-9.352,9.196V50.242l19.97-19.805c2.929-2.929,3.012-7.678,0.082-10.606c-2.928-2.928-7.802-2.929-10.731,0.001l-9.321,9.196V7.5
	c0-4.143-3.357-7.5-7.5-7.5c-4.143,0-7.5,3.357-7.5,7.5v20.528l-8.03-8.196c-2.93-2.929-7.595-2.93-10.523-0.001
	c-2.93,2.929-3.055,7.678-0.126,10.606l18.679,18.805v11.786l-8.03-8.196c-2.93-2.929-7.595-2.93-10.523-0.001
	c-2.93,2.929-2.888,7.678,0.041,10.606l18.175,18.155l-9.615,26.602l-24.048-11.357V68.5c0-4.143-3.357-7.5-7.5-7.5
	s-7.5,3.357-7.5,7.5v14.101l-9-9V45.5c0-4.143-3.357-7.5-7.5-7.5s-7.5,3.357-7.5,7.5v13.101L53.875,43.142
	c-2.93-2.928-7.594-2.928-10.524,0c-2.929,2.93-2.887,7.678,0.042,10.607L58.185,68.5H47.5c-4.143,0-7.5,3.357-7.5,7.5
	s3.357,7.5,7.5,7.5h25.685l8,8H70.5c-4.143,0-7.5,3.357-7.5,7.5s3.357,7.5,7.5,7.5h25.387l12.308,25.891l-25.125,8.936
	l-19.132-19.131c-2.928-2.928-7.677-2.929-10.606,0.001c-2.929,2.929-2.929,7.678,0.001,10.606l9.698,9.697H51.243l-20.306-20.305
	c-2.928-2.928-7.677-2.929-10.606,0.001c-2.929,2.929-2.929,7.678,0.001,10.606l9.698,9.697H7.5c-4.143,0-7.5,3.357-7.5,7.5
	s3.357,7.5,7.5,7.5h20.527l-7.695,7.695c-2.93,2.929-2.93,7.678-0.001,10.607c1.465,1.465,3.384,2.197,5.304,2.197
	c1.919,0,3.839-0.732,5.303-2.196L49.241,157.5h11.786l-7.695,7.695c-2.93,2.929-2.93,7.678-0.001,10.607
	c1.465,1.465,3.384,2.197,5.304,2.197c1.919,0,3.839-0.732,5.303-2.196L82.241,157.5h0.338l25.615,9.109L96.837,190.5H69.5
	c-4.143,0-7.5,3.357-7.5,7.5s3.357,7.5,7.5,7.5h14.101l-9,9H46.5c-4.143,0-7.5,3.357-7.5,7.5s3.357,7.5,7.5,7.5h13.101
	l-15.459,15.459c-2.929,2.93-2.929,7.678,0,10.607c1.465,1.464,3.385,2.196,5.304,2.196c1.919,0,3.672-0.732,5.137-2.196
	l14.584-14.751V251.5c0,4.143,3.357,7.5,7.5,7.5s7.5-3.357,7.5-7.5v-25.685l8-8V228.5c0,4.143,3.357,7.5,7.5,7.5s7.5-3.357,7.5-7.5
	v-25.685l0.504-0.338l24.637-11.672l9.238,25.864l-18.871,18.893c-2.929,2.929-2.918,7.678,0.011,10.606
	c1.464,1.464,3.389,2.196,5.308,2.196s3.675-0.732,5.14-2.197l9.032-9.196v11.786l-19.637,19.805
	c-2.929,2.929-2.845,7.678,0.084,10.606c1.464,1.464,3.425,2.196,5.344,2.196s3.693-0.732,5.158-2.197l9.051-9.196V291.5
	c0,4.143,3.357,7.5,7.5,7.5c4.143,0,7.5-3.357,7.5-7.5v-20.528l8.363,8.196c1.465,1.465,3.467,2.197,5.387,2.197
	c1.919,0,3.881-0.732,5.344-2.196c2.93-2.929,2.784-7.678-0.145-10.606l-18.949-18.805v-11.786l8.363,8.196
	c1.465,1.465,3.467,2.197,5.387,2.197c1.919,0,3.881-0.732,5.344-2.196c2.93-2.929,2.784-7.678-0.145-10.606l-18.949-18.805v-0.335
	l9.108-25.617l24.892,11.833V229.5c0,4.143,3.357,7.5,7.5,7.5c4.143,0,7.5-3.357,7.5-7.5v-12.685l8,8V252.5
	c0,4.143,3.357,7.5,7.5,7.5c4.143,0,7.5-3.357,7.5-7.5v-12.685l14.918,14.752c1.465,1.464,3.468,2.196,5.387,2.196
	c1.919,0,3.88-0.732,5.345-2.196c2.929-2.93,2.949-7.678,0.021-10.607l-14.439-14.46H252.5c4.143,0,7.5-3.357,7.5-7.5
	s-3.357-7.5-7.5-7.5h-27.101l-8-8H229.5c4.143,0,7.5-3.357,7.5-7.5s-3.357-7.5-7.5-7.5h-26.862l-11.832-24.891l25.615-9.109h0.338
	l19.304,19.303c1.464,1.464,3.384,2.196,5.303,2.196c1.919,0,3.839-0.732,5.304-2.197c2.929-2.929,2.929-7.678-0.001-10.607
	l-8.696-8.695h11.787l19.304,19.303c1.464,1.464,3.384,2.196,5.303,2.196c1.919,0,3.839-0.732,5.304-2.197
	c2.929-2.929,2.929-7.678-0.001-10.607l-8.696-8.695H291.5c4.143,0,7.5-3.357,7.5-7.5S295.643,142.5,291.5,142.5z"/>
<g>
</g>
<g>
</g>
<g>
</g>
<g>
</g>
<g>
</g>
<g>
</g>
<g>
</g>
<g>
</g>
<g>
</g>
<g>
</g>
<g>
</g>
<g>
</g>
<g>
</g>
<g>
</g>
<g>
</g>
</svg>
